# xmcd
#
# Track frame offsets:
#	150
#	3022
#	14995
#	26645
#	39199
#	52629
#	66739
#	86279
#	97796
#	106957
#	116172
#	127312
#	138198
#	158172
#	166161
#	177991
#	196302
#	214818
#
# Disc length: 3058 seconds
#
# Revision: 1
# Processed by: cddbd v1.5.1PL2 Copyright (c) Steve Scherf et al.
# Submitted via: audiograbber 1.83.01
#
DISCID=eb0bf012
DTITLE=International Pen Pal - Brand New Favorite Songs
DYEAR=2005
DGENRE=
TTITLE0=Hi
TTITLE1=Impending Crisis
TTITLE2=Barbara Spinelli
TTITLE3=Neptune Sugar
TTITLE4=Honey Bay Bee
TTITLE5=Rosalind Bullard
TTITLE6=Salted
TTITLE7=Problem Set
TTITLE8=I Can't Think of you Without Smiling
TTITLE9=West 88th Street
TTITLE10=The Chestnut
TTITLE11=When the Medicine Wears Off
TTITLE12=Rita Lynn
TTITLE13=The Hatchet
TTITLE14=When She Was Sure
TTITLE15=Answer Key
TTITLE16=Everything's Coming Together
TTITLE17=Data Track
EXTD=
EXTT0=
EXTT1=
EXTT2=
EXTT3=
EXTT4=
EXTT5=
EXTT6=
EXTT7=
EXTT8=
EXTT9=
EXTT10=
EXTT11=
EXTT12=
EXTT13=
EXTT14=
EXTT15=
EXTT16=
EXTT17=
PLAYORDER=
